<svg xmlns="http://www.w3.org/2000/svg" xmlns:xlink="http://www.w3.org/1999/xlink" width="480" zoomAndPan="magnify" viewBox="0 0 360 174.749997" height="233" preserveAspectRatio="xMidYMid meet" version="1.0"><defs><g/></defs><g fill="#38b6ff" fill-opacity="1"><g transform="translate(24.317967, 128.900538)"><g><path d="M 90.472656 20.316406 L 90.789062 20.210938 C 91.320312 20.105469 91.636719 19.574219 91.425781 19.046875 C 84.863281 -0.953125 111.636719 -32.804688 136.503906 -54.070312 C 143.699219 -60.210938 144.015625 -62.539062 143.59375 -63.914062 C 143.273438 -64.972656 142.324219 -65.394531 141.792969 -65.394531 L 141.265625 -65.394531 C 125.496094 -58.410156 110.472656 -45.925781 98.832031 -34.390625 C 125.179688 -68.992188 123.0625 -71.53125 122.21875 -72.589844 C 121.476562 -73.332031 120.417969 -73.226562 119.570312 -72.800781 C 106.769531 -65.394531 96.082031 -58.621094 87.191406 -52.378906 C 102.113281 -68.144531 104.757812 -79.785156 103.488281 -82.960938 C 103.382812 -83.277344 103.066406 -83.699219 102.429688 -84.019531 C 98.089844 -85.5 75.339844 -79.363281 55.765625 -66.980469 C 32.589844 -52.484375 26.984375 -43.066406 26.453125 -37.671875 C 26.136719 -34.285156 27.722656 -32.695312 27.828125 -32.589844 C 28.253906 -32.167969 28.886719 -32.167969 29.207031 -32.589844 C 29.628906 -33.015625 29.628906 -33.648438 29.207031 -33.96875 C 29.207031 -33.96875 28.148438 -35.023438 28.359375 -37.457031 C 28.78125 -41.480469 33.121094 -50.472656 56.824219 -65.394531 C 76.929688 -77.988281 98.9375 -83.277344 101.6875 -82.113281 C 102.113281 -80.101562 100.84375 -68.675781 83.488281 -51.425781 L 77.035156 -44.972656 C 47.828125 -22.539062 43.808594 -9.101562 43.597656 -8.253906 C 43.492188 -7.832031 43.703125 -7.40625 44.125 -7.195312 C 44.546875 -6.984375 44.972656 -7.089844 45.289062 -7.40625 C 45.394531 -7.617188 54.496094 -19.257812 78.09375 -43.171875 C 88.566406 -51.320312 102.429688 -60.738281 120.523438 -71.003906 C 120.523438 -69.308594 117.03125 -60.316406 82.324219 -16.507812 C 78.515625 -11.851562 76.292969 -8.78125 76.1875 -8.675781 C 75.871094 -8.253906 75.976562 -7.722656 76.398438 -7.40625 C 76.824219 -6.984375 77.457031 -7.089844 77.773438 -7.511719 L 84.019531 -15.34375 C 94.492188 -28.042969 117.136719 -52.589844 141.6875 -63.382812 C 141.792969 -63.171875 142.003906 -61.375 135.234375 -55.554688 C 108.671875 -32.804688 82.75 -1.164062 89.625 19.574219 C 89.730469 20 90.050781 20.316406 90.472656 20.316406 Z M 51.53125 -17.882812 C 54.070312 -21.164062 57.667969 -25.289062 62.644531 -30.050781 Z M 51.53125 -17.882812 "/></g></g></g><g fill="#38b6ff" fill-opacity="1"><g transform="translate(141.555051, 128.900538)"><g><path d="M -2.960938 -9.207031 C -0.527344 -9.207031 3.808594 -10.792969 7.9375 -12.484375 C 7.511719 -11.851562 7.40625 -11.324219 7.511719 -10.898438 C 7.722656 -9.945312 8.570312 -9.417969 10.160156 -9.3125 C 17.777344 -8.675781 34.496094 -13.4375 37.035156 -14.601562 C 37.457031 -14.8125 37.671875 -15.238281 37.566406 -15.765625 C 37.457031 -16.296875 36.929688 -16.507812 36.402344 -16.402344 C 34.496094 -15.554688 17.566406 -10.582031 10.265625 -11.214844 C 9.839844 -11.214844 9.628906 -11.324219 9.417969 -11.324219 C 9.734375 -11.851562 11.003906 -13.332031 17.035156 -16.824219 C 17.355469 -16.929688 18.199219 -17.355469 17.671875 -18.199219 C 17.355469 -18.835938 16.929688 -18.730469 16.402344 -18.519531 L 15.34375 -18.09375 C 15.34375 -18.519531 15.132812 -19.046875 14.921875 -19.46875 C 13.332031 -21.691406 8.570312 -22.222656 1.800781 -17.988281 C -2.855469 -15.132812 -5.289062 -12.378906 -5.183594 -10.6875 C -5.078125 -10.050781 -4.761719 -9.523438 -4.234375 -9.3125 C -3.914062 -9.207031 -3.492188 -9.207031 -2.960938 -9.207031 Z M -3.28125 -11.003906 C -2.960938 -11.746094 -1.585938 -13.648438 2.75 -16.402344 C 8.996094 -20.316406 12.59375 -19.46875 13.332031 -18.410156 C 13.648438 -17.882812 13.4375 -17.355469 12.910156 -16.824219 C 3.386719 -12.273438 -1.691406 -10.898438 -3.28125 -11.003906 Z M -3.28125 -11.003906 "/></g></g></g><g fill="#38b6ff" fill-opacity="1"><g transform="translate(178.376803, 128.900538)"><g><path d="M 1.800781 -9.207031 L 3.070312 -9.207031 C 9.207031 -9.207031 23.914062 -14.390625 24.550781 -14.601562 C 25.078125 -14.8125 25.289062 -15.34375 25.078125 -15.765625 C 24.972656 -16.296875 24.445312 -16.507812 23.914062 -16.402344 C 19.152344 -14.707031 6.03125 -10.476562 2.117188 -11.109375 C 2.960938 -12.484375 8.253906 -15.976562 13.015625 -18.519531 C 13.4375 -18.835938 13.648438 -19.257812 13.4375 -19.683594 C 13.332031 -20.105469 12.910156 -20.421875 12.378906 -20.316406 C 10.582031 -20 8.675781 -19.894531 7.300781 -19.894531 C 6.984375 -21.269531 5.925781 -22.433594 5.183594 -22.855469 C 4.339844 -23.28125 3.808594 -22.960938 3.597656 -22.75 C 2.75 -22.117188 3.070312 -20.953125 3.28125 -20.105469 C 3.492188 -19.363281 4.019531 -18.941406 4.65625 -18.625 C 3.597656 -17.882812 1.480469 -17.140625 -0.527344 -16.402344 C -1.058594 -16.191406 -1.164062 -15.660156 -1.058594 -15.238281 C -0.847656 -14.707031 -0.316406 -14.390625 0.105469 -14.601562 C 2.75 -15.554688 5.820312 -16.71875 6.878906 -18.09375 L 8.253906 -17.988281 C 3.808594 -15.34375 -0.210938 -12.484375 0.105469 -10.6875 C 0.210938 -10.265625 0.527344 -9.523438 1.800781 -9.207031 Z M 1.800781 -9.207031 "/></g></g></g><g fill="#38b6ff" fill-opacity="1"><g transform="translate(202.818835, 128.900538)"><g><path d="M -1.585938 -8.996094 C -0.847656 -8.996094 -0.105469 -9.101562 0.210938 -9.207031 C 2.855469 -9.839844 11.851562 -15.238281 15.660156 -17.566406 C 15.765625 -16.824219 15.976562 -15.976562 16.613281 -15.238281 C 17.988281 -13.863281 20.421875 -13.648438 24.019531 -14.601562 C 24.445312 -14.707031 24.761719 -15.238281 24.65625 -15.765625 C 24.550781 -16.191406 24.019531 -16.507812 23.492188 -16.402344 C 20.738281 -15.660156 18.835938 -15.660156 17.988281 -16.507812 C 17.246094 -17.355469 17.671875 -19.046875 17.671875 -19.046875 C 17.882812 -19.46875 17.671875 -19.894531 17.460938 -20.105469 C 17.140625 -20.421875 16.613281 -20.421875 16.296875 -20.210938 C 12.59375 -17.882812 2.328125 -11.640625 -0.210938 -11.003906 C -1.375 -10.792969 -1.800781 -10.792969 -2.011719 -10.898438 C -2.011719 -11.429688 -0.847656 -13.863281 4.550781 -19.046875 C 4.867188 -19.363281 4.972656 -20 4.550781 -20.316406 C 4.234375 -20.738281 3.597656 -20.738281 3.28125 -20.421875 C -4.972656 -12.484375 -3.914062 -10.582031 -3.597656 -9.945312 C -3.175781 -9.207031 -2.328125 -8.996094 -1.585938 -8.996094 Z M -1.585938 -8.996094 "/></g></g></g><g fill="#38b6ff" fill-opacity="1"><g transform="translate(226.731809, 128.900538)"><g><path d="M 2.539062 -9.207031 C 6.03125 -9.207031 15.765625 -10.476562 28.253906 -14.601562 C 28.675781 -14.707031 28.992188 -15.238281 28.78125 -15.765625 C 28.675781 -16.296875 28.148438 -16.507812 27.617188 -16.402344 C 14.8125 -12.167969 4.761719 -11.003906 2.117188 -11.109375 C 0.527344 -11.214844 -0.953125 -11.746094 -1.164062 -12.378906 C -1.375 -12.699219 -1.058594 -13.226562 -0.742188 -13.542969 C 0 -14.496094 1.480469 -15.449219 3.175781 -16.191406 C 5.714844 -15.132812 10.265625 -15.238281 12.699219 -16.507812 C 14.601562 -17.566406 14.707031 -18.625 14.496094 -19.257812 C 14.074219 -20.738281 11.429688 -20.527344 10.582031 -20.421875 C 8.996094 -20.316406 5.820312 -19.46875 2.960938 -18.199219 L 2.75 -18.09375 C 0.636719 -17.140625 -1.269531 -15.976562 -2.222656 -14.707031 C -3.386719 -13.332031 -3.175781 -12.273438 -2.960938 -11.640625 C -2.328125 -10.160156 -0.316406 -9.417969 2.539062 -9.207031 Z M 6.136719 -17.460938 C 8.042969 -18.09375 9.839844 -18.519531 10.792969 -18.625 L 12.378906 -18.625 L 11.746094 -18.199219 C 10.476562 -17.460938 8.148438 -17.246094 6.136719 -17.460938 Z M 6.136719 -17.460938 "/></g></g></g><g fill="#38b6ff" fill-opacity="1"><g transform="translate(254.877173, 128.900538)"><g><path d="M -5.925781 -8.996094 C -5.714844 -8.996094 -5.609375 -8.996094 -5.398438 -9.101562 C 0.527344 -13.332031 10.898438 -19.574219 13.757812 -18.519531 C 13.863281 -18.199219 13.332031 -17.246094 11.851562 -15.765625 C 8.886719 -13.015625 7.511719 -11.535156 8.148438 -10.265625 C 8.675781 -9.101562 10.371094 -9.207031 11.109375 -9.3125 C 12.484375 -9.417969 21.902344 -11.324219 32.273438 -14.601562 C 32.804688 -14.707031 33.015625 -15.238281 32.910156 -15.765625 C 32.695312 -16.296875 32.167969 -16.507812 31.746094 -16.402344 C 21.480469 -13.121094 12.273438 -11.324219 10.898438 -11.214844 L 10.050781 -11.109375 C 10.265625 -11.640625 11.109375 -12.484375 13.121094 -14.390625 C 14.390625 -15.660156 15.976562 -17.355469 15.660156 -18.835938 C 15.554688 -19.257812 15.34375 -19.894531 14.390625 -20.316406 C 11.746094 -21.269531 6.136719 -18.519531 1.375 -15.765625 L 4.550781 -18.835938 C 4.972656 -19.257812 4.972656 -19.789062 4.550781 -20.210938 C 4.234375 -20.527344 3.597656 -20.527344 3.28125 -20.210938 L -6.5625 -10.582031 C -6.984375 -10.265625 -6.984375 -9.628906 -6.667969 -9.3125 C -6.453125 -9.101562 -6.242188 -8.996094 -5.925781 -8.996094 Z M -5.925781 -8.996094 "/></g></g></g><g fill="#38b6ff" fill-opacity="1"><g transform="translate(287.043319, 128.900538)"><g><path d="M 39.679688 -45.710938 C 39.894531 -46.453125 39.46875 -46.980469 39.046875 -47.195312 C 38.515625 -47.511719 37.035156 -48.253906 24.230469 -38.515625 C 16.71875 -38.410156 12.699219 -37.777344 12.167969 -36.613281 C 11.957031 -36.082031 12.167969 -35.554688 12.699219 -35.34375 L 13.015625 -35.238281 C 13.332031 -35.238281 13.648438 -35.449219 13.863281 -35.660156 C 14.601562 -36.1875 17.566406 -36.402344 21.691406 -36.507812 C 15.027344 -31.214844 6.453125 -23.914062 1.691406 -18.625 C -2.960938 -13.332031 -3.914062 -11.851562 -3.28125 -10.371094 C -2.855469 -9.417969 -1.800781 -9.207031 -0.636719 -9.207031 L 0.527344 -9.3125 C 3.492188 -9.628906 12.484375 -12.0625 18.625 -14.601562 C 19.046875 -14.8125 19.363281 -15.34375 19.152344 -15.871094 C 18.941406 -16.296875 18.519531 -16.613281 18.09375 -16.402344 C 12.167969 -13.96875 3.175781 -11.429688 0.316406 -11.214844 L -0.742188 -11.109375 C -1.375 -11.109375 -1.585938 -11.214844 -1.585938 -11.214844 C -1.691406 -11.640625 -1.375 -12.378906 3.070312 -17.355469 C 4.019531 -18.410156 5.078125 -19.46875 6.242188 -20.632812 C 12.273438 -24.125 22.117188 -30.792969 29.523438 -36.507812 L 38.410156 -36.1875 C 38.941406 -36.1875 39.363281 -36.613281 39.46875 -37.140625 C 39.46875 -37.671875 39.046875 -38.09375 38.515625 -38.09375 L 31.957031 -38.410156 C 36.296875 -41.796875 39.363281 -44.546875 39.679688 -45.710938 Z M 29.097656 -38.410156 C 28.464844 -38.410156 27.933594 -38.515625 27.40625 -38.515625 C 31.214844 -41.269531 34.601562 -43.597656 36.613281 -44.65625 C 35.132812 -43.277344 32.378906 -41.058594 29.097656 -38.410156 Z M 13.863281 -27.617188 C 17.460938 -30.6875 21.375 -33.753906 24.867188 -36.507812 L 26.558594 -36.507812 C 22.644531 -33.648438 18.199219 -30.476562 13.863281 -27.617188 Z M 13.863281 -27.617188 "/></g></g></g><g fill="#38b6ff" fill-opacity="1"><g transform="translate(305.56001, 128.900538)"><g><path d="M 23.597656 -15.976562 C 23.28125 -16.402344 22.644531 -16.402344 22.222656 -16.296875 C 16.402344 -14.390625 10.898438 -11.109375 4.867188 -7.9375 C 9.207031 -11.003906 11.214844 -13.4375 11.214844 -15.449219 C 11.214844 -15.765625 11.109375 -15.976562 11.109375 -16.191406 C 12.804688 -17.035156 16.191406 -18.519531 18.199219 -18.941406 C 18.730469 -19.046875 19.152344 -19.46875 19.046875 -20 C 18.941406 -20.421875 18.519531 -20.847656 18.09375 -20.847656 C 14.601562 -20.847656 5.183594 -20.210938 5.078125 -20.210938 C 4.65625 -20.210938 4.339844 -19.894531 4.234375 -19.574219 C 4.125 -19.257812 4.234375 -18.835938 4.445312 -18.625 C 4.234375 -18.304688 3.597656 -17.460938 -0.421875 -16.402344 C -0.847656 -16.296875 -1.164062 -15.765625 -1.058594 -15.238281 C -0.953125 -14.921875 -0.636719 -14.601562 -0.316406 -14.496094 C 5.183594 -16.085938 6.136719 -17.355469 6.347656 -18.410156 L 11.746094 -18.625 C 10.476562 -17.988281 9.417969 -17.460938 9.207031 -17.355469 L 8.886719 -17.035156 C 8.78125 -16.929688 8.78125 -16.71875 8.78125 -16.613281 C 8.675781 -16.402344 8.675781 -16.191406 8.78125 -16.085938 C 8.886719 -15.871094 9.101562 -15.765625 9.3125 -15.660156 L 9.3125 -15.449219 C 9.3125 -14.921875 8.996094 -13.015625 3.386719 -9.101562 C 1.800781 -8.042969 0.105469 -6.773438 -1.691406 -5.503906 L -4.550781 -4.445312 C -14.179688 -0.953125 -21.058594 1.480469 -22.433594 4.867188 C -22.960938 6.136719 -23.492188 8.042969 -22.328125 8.996094 C -22.007812 9.207031 -21.691406 9.3125 -21.164062 9.3125 C -18.519531 9.3125 -13.332031 5.609375 -3.597656 -1.691406 L -0.847656 -3.808594 C 6.984375 -6.878906 15.449219 -11.746094 23.28125 -14.707031 C 23.703125 -14.921875 23.808594 -15.554688 23.597656 -15.976562 Z M -21.164062 7.40625 C -21.164062 7.300781 -21.164062 6.773438 -20.632812 5.503906 C -19.789062 3.28125 -13.757812 0.847656 -6.773438 -1.585938 C -12.484375 2.539062 -19.46875 7.722656 -21.164062 7.40625 Z M -21.164062 7.40625 "/></g></g></g><g fill="#38b6ff" fill-opacity="1"><g transform="translate(156.8868, 144.972012)"><g><path d="M 6.585938 -5.445312 C 7.421875 -5.84375 7.882812 -6.667969 7.882812 -7.667969 C 7.882812 -9.296875 6.660156 -10.429688 4.800781 -10.429688 L 1.636719 -10.429688 L 1.636719 0 L 5.699219 0 C 7.496094 0 8.644531 -1.171875 8.644531 -2.832031 C 8.644531 -4.265625 7.816406 -5.132812 6.585938 -5.445312 Z M 6.636719 -7.585938 C 6.636719 -6.636719 5.992188 -5.859375 5.039062 -5.859375 L 2.917969 -5.859375 L 2.917969 -9.269531 L 4.792969 -9.269531 C 5.949219 -9.269531 6.636719 -8.535156 6.636719 -7.585938 Z M 5.476562 -1.179688 L 2.917969 -1.179688 L 2.917969 -4.765625 L 5.378906 -4.765625 C 6.632812 -4.765625 7.355469 -3.980469 7.355469 -2.964844 C 7.355469 -2 6.667969 -1.179688 5.476562 -1.179688 Z M 5.476562 -1.179688 "/></g></g></g><g fill="#38b6ff" fill-opacity="1"><g transform="translate(170.136656, 144.972012)"><g><path d="M 7.230469 -9.222656 L 7.230469 -10.429688 L 1.636719 -10.429688 L 1.636719 0 L 7.230469 0 L 7.230469 -1.207031 L 2.992188 -1.207031 L 2.992188 -4.617188 L 6.726562 -4.617188 L 6.726562 -5.808594 L 2.992188 -5.808594 L 2.992188 -9.222656 Z M 7.230469 -9.222656 "/></g></g></g><g fill="#38b6ff" fill-opacity="1"><g transform="translate(182.046175, 144.972012)"><g><path d="M 8.644531 -10.429688 L 8.644531 -2.03125 L 3.023438 -10.429688 L 1.636719 -10.429688 L 1.636719 0 L 2.941406 0 L 2.941406 -8.4375 L 8.566406 0 L 9.964844 0 L 9.964844 -10.429688 Z M 8.644531 -10.429688 "/></g></g></g><g fill="#38b6ff" fill-opacity="1"><g transform="translate(197.421317, 144.972012)"><g><path d="M 7.230469 -9.222656 L 7.230469 -10.429688 L 1.636719 -10.429688 L 1.636719 0 L 7.230469 0 L 7.230469 -1.207031 L 2.992188 -1.207031 L 2.992188 -4.617188 L 6.726562 -4.617188 L 6.726562 -5.808594 L 2.992188 -5.808594 L 2.992188 -9.222656 Z M 7.230469 -9.222656 "/></g></g></g><g fill="#38b6ff" fill-opacity="1"><g transform="translate(209.330836, 144.972012)"><g><path d="M 6.105469 0.140625 C 8.164062 0.140625 9.898438 -0.875 10.714844 -2.628906 L 9.492188 -3.125 C 8.855469 -1.835938 7.59375 -1.125 6.105469 -1.125 C 3.941406 -1.125 2.230469 -2.609375 2.230469 -5.222656 C 2.230469 -7.824219 3.941406 -9.304688 6.105469 -9.304688 C 7.59375 -9.304688 8.855469 -8.585938 9.492188 -7.296875 L 10.714844 -7.800781 C 9.898438 -9.550781 8.164062 -10.574219 6.105469 -10.574219 C 3.164062 -10.574219 0.910156 -8.550781 0.910156 -5.222656 C 0.910156 -1.882812 3.164062 0.140625 6.105469 0.140625 Z M 6.105469 0.140625 "/></g></g></g><g fill="#38b6ff" fill-opacity="1"><g transform="translate(224.454201, 144.972012)"><g><path d="M 1.636719 0 L 2.972656 0 L 2.972656 -4.628906 L 8.253906 -4.628906 L 8.253906 0 L 9.578125 0 L 9.578125 -10.429688 L 8.253906 -10.429688 L 8.253906 -5.824219 L 2.972656 -5.824219 L 2.972656 -10.429688 L 1.636719 -10.429688 Z M 1.636719 0 "/></g></g></g><g fill="#38b6ff" fill-opacity="1"><g transform="translate(239.444274, 144.972012)"><g><path d="M 7.230469 -9.222656 L 7.230469 -10.429688 L 1.636719 -10.429688 L 1.636719 0 L 7.230469 0 L 7.230469 -1.207031 L 2.992188 -1.207031 L 2.992188 -4.617188 L 6.726562 -4.617188 L 6.726562 -5.808594 L 2.992188 -5.808594 L 2.992188 -9.222656 Z M 7.230469 -9.222656 "/></g></g></g></svg>